<?xml version="1.0" standalone="no"?>
<!DOCTYPE svg PUBLIC "-//W3C//DTD SVG 20010904//EN"
 "http://www.w3.org/TR/2001/REC-SVG-20010904/DTD/svg10.dtd">
<svg version="1.0" xmlns="http://www.w3.org/2000/svg"
 width="4960.000000pt" height="3508.000000pt" viewBox="0 0 4960.000000 3508.000000"
 preserveAspectRatio="xMidYMid meet">

<g transform="translate(0.000000,3508.000000) scale(0.100000,-0.100000)"
fill="#000000" stroke="none">
<path d="M2367 25608 c-6 -5 -75 -6 -152 -2 l-140 6 -77 -51 c-77 -52 -165
-132 -204 -187 -42 -60 -121 -257 -127 -319 -7 -71 40 -420 138 -1035 150
-933 318 -1754 550 -2680 29 -118 56 -239 60 -269 3 -30 17 -75 29 -100 13
-25 42 -113 65 -196 141 -504 379 -1206 584 -1720 372 -934 831 -1783 1311
-2425 44 -59 53 -76 40 -80 -11 -4 -6 -13 24 -37 22 -18 60 -60 86 -95 55 -74
127 -156 214 -240 34 -34 62 -64 62 -68 0 -12 351 -361 396 -394 21 -16 55
-46 75 -65 21 -20 54 -52 75 -71 l38 -35 1671 3 c918 2 1758 5 1865 7 107 2
1345 7 2750 10 1405 3 2683 7 2840 10 157 3 1412 7 2790 10 1378 3 2647 7
2820 10 173 3 1445 7 2825 10 1381 3 2627 7 2770 10 143 3 1450 7 2905 11
1455 3 2679 7 2720 9 41 2 696 5 1455 7 759 1 1462 4 1563 6 l182 3 0 58 c0
39 11 93 33 162 21 65 41 155 51 239 10 74 26 199 37 276 10 78 19 147 19 153
0 8 -2840 12 -10782 14 -8240 2 -10794 6 -10830 15 -26 6 -58 18 -70 26 -13 8
-50 18 -82 21 -73 7 -97 12 -161 35 -30 10 -66 15 -88 12 -23 -2 -54 2 -75 11
-20 9 -54 18 -76 21 -21 3 -46 11 -55 19 -9 7 -56 24 -105 36 -182 45 -449
168 -881 408 -336 187 -450 238 -875 388 -2029 720 -3723 1712 -4919 2880
-159 155 -436 459 -571 625 -244 302 -486 668 -617 934 -45 93 -52 115 -47
145 8 45 29 87 49 98 13 8 45 36 188 165 29 26 55 48 60 48 4 0 36 26 70 58
80 74 139 114 240 164 45 21 93 46 107 53 49 28 176 82 220 94 25 7 65 21 90
32 88 36 322 71 470 70 222 -1 519 -56 630 -116 14 -8 68 -26 120 -40 52 -15
106 -34 120 -43 14 -9 54 -30 90 -47 210 -99 409 -210 586 -327 111 -73 223
-150 250 -171 27 -21 74 -57 105 -80 96 -71 318 -268 444 -395 272 -272 295
-299 295 -354 0 -11 11 -33 25 -50 14 -16 25 -35 25 -41 0 -7 9 -23 20 -37 11
-14 20 -36 20 -50 0 -14 7 -36 15 -50 8 -14 14 -33 15 -43 0 -11 13 -32 30
-47 16 -15 30 -37 30 -47 0 -11 16 -37 35 -59 20 -21 47 -52 61 -69 13 -16 42
-50 64 -74 22 -24 40 -49 40 -56 0 -7 11 -20 25 -29 14 -9 33 -34 42 -54 47
-108 68 -142 93 -147 14 -3 71 -1 127 5 77 7 121 17 185 44 l84 35 233 5 c229
6 275 10 297 27 6 5 29 15 51 23 23 8 58 26 80 39 68 44 142 58 319 61 131 2
166 6 185 19 13 10 37 17 53 17 16 0 43 4 60 10 103 31 266 51 449 54 198 4
227 8 287 45 19 11 45 21 57 21 27 0 113 56 120 79 2 9 11 32 20 51 16 37 33
120 59 290 23 153 20 493 -5 670 -20 133 -30 185 -50 265 -6 22 -15 67 -22
100 -28 143 -157 447 -256 603 -18 29 -33 57 -33 62 0 5 -12 22 -27 39 -16 16
-44 55 -63 87 -29 48 -183 242 -232 292 -83 85 -201 192 -230 210 -20 13 -48
35 -60 50 -13 15 -49 47 -81 71 -31 24 -57 47 -57 51 0 12 -124 97 -165 114
-19 8 -60 34 -92 58 -32 23 -74 50 -93 59 -19 9 -48 28 -64 43 -16 15 -38 32
-50 37 -11 5 -36 21 -55 34 -19 14 -51 30 -71 35 -20 5 -56 23 -78 40 -23 16
-48 30 -56 30 -7 0 -41 18 -74 40 -33 22 -66 40 -74 40 -8 0 -35 14 -61 30
-26 17 -56 30 -65 30 -10 0 -39 13 -65 29 -25 17 -69 37 -96 45 -28 8 -80 29
-115 45 -35 17 -70 31 -77 31 -27 1 -179 59 -209 80 -17 12 -59 28 -95 35 -35
8 -77 21 -94 29 -16 9 -38 16 -49 16 -10 0 -38 13 -63 28 -29 19 -79 35 -149
50 -141 28 -228 54 -270 80 -22 13 -59 23 -95 26 -115 9 -192 24 -233 45 -23
12 -49 21 -58 21 -9 0 -41 11 -71 26 -39 18 -80 27 -148 33 -59 5 -103 14
-119 24 -14 10 -33 17 -43 17 -28 0 -167 36 -192 50 -13 6 -33 9 -45 6 -27 -7
-192 25 -226 44 -14 8 -48 15 -76 16 -28 1 -61 7 -73 14 -13 6 -35 9 -49 5
-14 -3 -53 -2 -86 4 -176 31 -245 41 -281 41 -22 0 -60 9 -84 20 -25 12 -65
20 -95 20 -28 0 -72 7 -98 15 -27 8 -78 16 -116 19 -37 3 -90 11 -117 17 -28
5 -78 12 -112 14 -35 2 -72 9 -83 15 -11 6 -25 8 -30 5 -6 -4 -46 1 -90 10
-44 9 -84 14 -89 11 -5 -3 -31 -1 -57 5 -27 6 -69 12 -94 14 -355 25 -419 32
-444 49 -15 9 -31 14 -36 11 -23 -14 -122 -6 -160 13 -23 11 -44 16 -52 11
-20 -13 -136 -11 -161 3 -12 6 -65 13 -117 15 -52 2 -113 5 -135 7 -22 3 -94
7 -159 10 -66 3 -149 8 -185 12 -36 4 -109 8 -161 9 -52 1 -115 5 -140 8 -25
2 -166 8 -315 11 -379 9 -726 25 -820 38 -99 13 -291 17 -308 6z"/>
</g>
</svg>
